<?xml version="1.0" encoding="utf-8"?>
<!-- Generator: Adobe Illustrator 19.0.0, SVG Export Plug-In . SVG Version: 6.00 Build 0)  -->
<svg version="1.1" id="Camada_1" xmlns="http://www.w3.org/2000/svg" xmlns:xlink="http://www.w3.org/1999/xlink" x="0px" y="0px"
	 viewBox="0 0 255 238" style="enable-background:new 0 0 255 238;" xml:space="preserve">
<style type="text/css">
	.Sombra{fill:none;}
	.Cantos_x0020_arredondados_x0020__x002D__x0020_2_x0020_pontos{fill:#FFFFFF;stroke:#000000;stroke-miterlimit:10;}
	.Reflexo_x0020_X_x0020_em_x0020_tempo_x0020_real{fill:none;}
	.Chanfro_x0020_suave{fill:url(#SVGID_1_);}
	.Anoitecer{fill:#FFFFFF;}
	.Foliage_GS{fill:#F8E100;}
	.Pompadour_GS{fill-rule:evenodd;clip-rule:evenodd;fill:#80AFDD;}
	.st0{fill:#C2354C;}
	.st1{fill:#322C2C;}
</style>
<linearGradient id="SVGID_1_" gradientUnits="userSpaceOnUse" x1="-5107.5806" y1="241.2778" x2="-5106.8735" y2="241.9849">
	<stop  offset="0" style="stop-color:#E9EAED"/>
	<stop  offset="0.1736" style="stop-color:#E5E6E9"/>
	<stop  offset="0.3517" style="stop-color:#D7D8DB"/>
	<stop  offset="0.5317" style="stop-color:#C0C0C3"/>
	<stop  offset="0.7132" style="stop-color:#A2A1A2"/>
	<stop  offset="0.894" style="stop-color:#808080"/>
	<stop  offset="1" style="stop-color:#6A6E6D"/>
</linearGradient>
<g id="XMLID_4_">
	<path id="XMLID_21_" class="st0" d="M-4752.1,457v-48.6l-49.5,18l-49.5-18V457l49.5-18L-4752.1,457z M-4764.1,425.4v14.5l-20-7.3
		L-4764.1,425.4z M-4839.1,439.9v-14.5l20,7.3L-4839.1,439.9z"/>
	<path id="XMLID_26_" class="st0" d="M-4834.6,664.2c-7.8,0-14.2,6.4-14.2,14.2c0,7.8,6.4,14.2,14.2,14.2c7.8,0,14.2-6.4,14.2-14.2
		C-4820.5,670.5-4826.8,664.2-4834.6,664.2z M-4834.6,680.5c-1.2,0-2.2-1-2.2-2.2c0-1.2,1-2.2,2.2-2.2c1.2,0,2.2,1,2.2,2.2
		C-4832.4,679.5-4833.4,680.5-4834.6,680.5z"/>
	<polygon id="XMLID_27_" class="st0" points="-4727.9,596.2 -4743,607.9 -4713.1,607.9 	"/>
	<path id="XMLID_30_" class="st0" d="M-4646.9,577.7c-22.6-24.9-29.6-56.7-31.5-79c-2.1-24.6,1.4-43.4,1.4-43.6l1.2-6.1l-58.7-9
		l-67,107.5l-67-107.5l-52.6,8l-6.1,0.9l1.1,6.1c0,0.2,3.5,19,1.4,43.6c-1.9,22.3-8.9,54.2-31.5,79l-1.8,2l14,149.4l27.4,30.8
		c0,0,60.2,61.4,90.6,91.8c5.2,5.3,10.2,11.7,17.3,14.2c2.2,0.8,7,0,7,0s12.4-8.5,17.6-13.7c30.3-30.5,125-123,125-123l14-149.4
		L-4646.9,577.7z M-4777.4,607.9h14.9l34.6-26.8l34.2,26.8h14.2v12h-17.9h-62.3h-17.6V607.9z M-4807.6,847.7l-23.9-24.4
		l-103.5-103.5l-10.7-136c18.7-21.5,30-50.7,32.8-84.4c1.5-17.8,0.3-32.5-0.7-40.4l38.9-5.9l67,107.5v100.2V847.7z"/>
</g>
<g id="XMLID_121_">
	<path id="XMLID_130_" class="st0" d="M-1799.4-359.7v-70.5l-71.7,26l-71.7-26v70.5l71.7-26L-1799.4-359.7z M-1816.8-405.4v21
		l-29-10.5L-1816.8-405.4z M-1925.5-384.4v-21l29,10.5L-1925.5-384.4z"/>
	<path id="XMLID_127_" class="st0" d="M-1919.1-59.3c-11.3,0-20.5,9.2-20.5,20.5c0,11.3,9.2,20.5,20.5,20.5
		c11.3,0,20.5-9.2,20.5-20.5C-1898.5-50.1-1907.7-59.3-1919.1-59.3z M-1919.1-35.6c-1.8,0-3.2-1.4-3.2-3.2c0-1.8,1.4-3.2,3.2-3.2
		c1.8,0,3.2,1.4,3.2,3.2C-1915.9-37-1917.3-35.6-1919.1-35.6z"/>
	<polygon id="XMLID_126_" class="st0" points="-1764.4,-157.8 -1786.2,-140.9 -1742.8,-140.9 	"/>
	<path id="XMLID_122_" class="st0" d="M-1646.9-184.6c-32.8-36-42.9-82.2-45.6-114.6c-3-35.6,2-63,2.1-63.2l1.7-8.8l-85.1-13
		l-97.2,155.8l-97.2-155.8l-76.3,11.7l-8.9,1.4l1.7,8.8c0.1,0.3,5.1,27.6,2.1,63.2c-2.7,32.4-12.9,78.6-45.6,114.6l-2.6,2.8
		l20.3,216.7l39.7,44.7c0,0,87.3,89,131.3,133c7.6,7.6,14.9,17,25,20.6c3.2,1.1,10.1,0,10.1,0s18-12.3,25.5-19.9
		c44-44.1,181.2-178.4,181.2-178.4l20.3-216.7L-1646.9-184.6z M-1836.1-140.9h21.6l50.2-38.9l49.6,38.9h20.5v17.3h-26h-90.4h-25.5
		V-140.9z M-1879.8,206.8l-34.7-35.4l-150-150l-15.5-197.2c27.1-31.2,43.5-73.5,47.6-122.4c2.1-25.8,0.4-47.1-1-58.5l56.4-8.6
		l97.2,155.8v145.3V206.8z"/>
</g>
<g id="XMLID_186_">
	<path id="XMLID_195_" class="st0" d="M-4218,467.5v-48.6l-49.5,18l-49.5-18v48.6l49.5-18L-4218,467.5z M-4230,435.9v14.5l-20-7.3
		L-4230,435.9z M-4305,450.4v-14.5l20,7.3L-4305,450.4z"/>
	<path id="XMLID_192_" class="st0" d="M-4300.6,674.7c-7.8,0-14.2,6.4-14.2,14.2c0,7.8,6.4,14.2,14.2,14.2c7.8,0,14.2-6.4,14.2-14.2
		C-4286.4,681-4292.8,674.7-4300.6,674.7z M-4300.6,691c-1.2,0-2.2-1-2.2-2.2c0-1.2,1-2.2,2.2-2.2c1.2,0,2.2,1,2.2,2.2
		C-4298.4,690-4299.4,691-4300.6,691z"/>
	<polygon id="XMLID_191_" class="st0" points="-4193.9,606.7 -4208.9,618.4 -4179,618.4 	"/>
	<path id="XMLID_187_" class="st0" d="M-4112.9,588.2c-22.6-24.9-29.6-56.7-31.5-79c-2.1-24.6,1.4-43.4,1.4-43.6l1.2-6.1l-58.7-9
		l-67,107.5l-67-107.5l-52.6,8l-6.1,0.9l1.1,6.1c0,0.2,3.5,19,1.4,43.6c-1.9,22.3-8.9,54.2-31.5,79l-1.8,2l14,149.4l27.4,30.8
		c0,0,60.2,61.4,90.6,91.8c5.2,5.3,10.2,11.7,17.3,14.2c2.2,0.8,7,0,7,0s12.4-8.5,17.6-13.7c30.3-30.5,125-123,125-123l14-149.4
		L-4112.9,588.2z M-4243.3,618.4h14.9l34.6-26.8l34.2,26.8h14.2v12h-17.9h-62.3h-17.6V618.4z M-4273.5,858.2l-23.9-24.4
		l-103.5-103.5l-10.7-136c18.7-21.5,30-50.7,32.8-84.4c1.5-17.8,0.3-32.5-0.7-40.4l38.9-5.9l67,107.5v100.2V858.2z"/>
</g>
<text id="XMLID_211_" transform="matrix(1 0 0 1 -4032.7195 776.4902)" class="st1" style="font-family:'AvantGardeITCbyBT-Demi'; font-size:415.377px; letter-spacing:-10;">gosuit</text>
<g id="XMLID_306_">
	<g id="XMLID_227_">
		<path id="XMLID_236_" class="st0" d="M-4218-61.3V-110l-49.5,18l-49.5-18v48.6l49.5-18L-4218-61.3z M-4230-92.9v14.5l-20-7.3
			L-4230-92.9z M-4305-78.4v-14.5l20,7.3L-4305-78.4z"/>
		<path id="XMLID_233_" class="st0" d="M-4300.6,145.9c-7.8,0-14.2,6.4-14.2,14.2c0,7.8,6.4,14.2,14.2,14.2
			c7.8,0,14.2-6.4,14.2-14.2C-4286.4,152.2-4292.8,145.9-4300.6,145.9z M-4300.6,162.2c-1.2,0-2.2-1-2.2-2.2c0-1.2,1-2.2,2.2-2.2
			c1.2,0,2.2,1,2.2,2.2C-4298.4,161.2-4299.4,162.2-4300.6,162.2z"/>
		<polygon id="XMLID_232_" class="st0" points="-4193.9,77.9 -4208.9,89.6 -4179,89.6 		"/>
		<path id="XMLID_228_" class="st0" d="M-4112.9,59.4c-22.6-24.9-29.6-56.7-31.5-79c-2.1-24.6,1.4-43.4,1.4-43.6l1.2-6.1l-58.7-9
			l-67,107.5l-67-107.5l-52.6,8l-6.1,0.9l1.1,6.1c0,0.2,3.5,19,1.4,43.6c-1.9,22.3-8.9,54.2-31.5,79l-1.8,2l14,149.4l27.4,30.8
			c0,0,60.2,61.4,90.6,91.8c5.2,5.3,10.2,11.7,17.3,14.2c2.2,0.8,7,0,7,0s12.4-8.5,17.6-13.7c30.3-30.5,125-123,125-123l14-149.4
			L-4112.9,59.4z M-4243.3,89.6h14.9l34.6-26.8l34.2,26.8h14.2v12h-17.9h-62.3h-17.6V89.6z M-4273.5,329.4l-23.9-24.4l-103.5-103.5
			l-10.7-136c18.7-21.5,30-50.7,32.8-84.4c1.5-17.8,0.3-32.5-0.7-40.4l38.9-5.9l67,107.5v100.2V329.4z"/>
	</g>
	<g id="XMLID_265_">
		<path id="XMLID_266_" class="st1" d="M-3832.9,24.6h46.4v186.2c0,38.7-10.3,69-30.9,91.1c-20.6,22-48.9,33.1-84.9,33.1
			c-26.9,0-49.4-6.3-67.5-19c-18.1-12.6-31.4-31.4-40-56.3h50.1c5.4,10,13.1,17.8,23.1,23.5c10,5.7,21.2,8.5,33.5,8.5
			c20.7,0,37.5-6.7,50.4-20.2c12.9-13.5,19.4-31.2,19.4-53.2v-2.2c-10,10.4-21.4,18.3-34.3,23.6c-12.8,5.3-26.9,8-42.2,8
			c-14.9,0-29-2.6-42.3-7.7c-13.3-5.1-25.1-12.5-35.4-22.1c-11.1-10.5-19.8-23.1-26.2-37.7c-6.4-14.6-9.5-29.5-9.5-44.6
			c0-33.8,10.7-61.7,32-83.7c21.4-22,48.5-33,81.3-33c15,0,28.8,2.6,41.5,7.9c12.6,5.3,24.4,13.4,35.4,24.3V24.6z M-3971.7,132.3
			c0,19.5,6.5,35.8,19.6,48.9c13,13.1,29.1,19.7,48.2,19.7c17.4,0,32.8-6.6,46.1-19.9c13.3-13.2,20-28.7,20-46.2
			c0-19.1-6.6-35.3-19.7-48.8c-13.1-13.5-28.7-20.2-46.9-20.2c-18.7,0-34.5,6.4-47.7,19.3C-3965.1,97.9-3971.7,113.6-3971.7,132.3z"
			/>
		<path id="XMLID_269_" class="st1" d="M-3766.1,135.1c0-15.7,2.9-30.6,8.6-44.7c5.7-14.1,14.1-26.7,25-37.6
			c11.2-11.2,23.9-19.8,37.9-25.9c14.1-6,28.7-9,43.8-9c16.1,0,30.9,2.7,44.5,8c13.6,5.3,26.1,13.4,37.4,24
			c11.6,11.2,20.6,24.2,27,38.8c6.4,14.7,9.5,29.7,9.5,45.1c0,17-2.8,32.6-8.3,46.6c-5.5,14.1-13.9,26.8-24.9,38.1
			c-11.1,11.5-23.7,20.2-37.9,26.1c-14.2,5.9-29.6,8.8-46.2,8.8c-16.8,0-32-3-45.8-8.9c-13.8-5.9-26.4-14.9-37.7-26.8
			c-10.8-11.6-19-24.4-24.5-38.4C-3763.3,165.5-3766.1,150.7-3766.1,135.1z M-3712.5,134.7c0,20.7,5.7,37.1,17,49.2
			c11.4,12.1,26.8,18.2,46.2,18.2c19.2,0,34.5-6.2,45.9-18.6c11.4-12.4,17.1-29,17.1-50c0-18.8-6-34.2-17.9-46.3
			c-12-12.1-27-18.2-45.1-18.2c-18.7,0-33.9,6.1-45.6,18.4C-3706.6,99.6-3712.5,115.4-3712.5,134.7z"/>
		<path id="XMLID_272_" class="st1" d="M-3476.1,173.7v3c0,9.9,2.5,17.9,7.5,24c5,6.2,11.5,9.2,19.5,9.2c7.6,0,13.8-2.3,18.6-6.9
			c4.8-4.6,7.2-10.5,7.2-17.6c0-6.6-1.8-12.1-5.3-16.3c-3.5-4.3-9.8-8.6-18.9-12.9c-5.1-2.3-12.7-5.5-22.7-9.5
			c-10-4.1-16.4-7.2-19.3-9.5c-8.3-6.8-14.3-14.3-18.3-22.6c-3.9-8.3-5.9-17.8-5.9-28.5c0-18.8,6.6-34.7,19.8-47.7
			c13.2-13,29.2-19.5,48-19.5c19.9,0,35.6,5.7,47.2,17.2c11.6,11.5,17.9,27.6,19,48.3h-46.6v-1.2c0-7.2-1.9-12.8-5.6-16.8
			c-3.7-4.1-8.9-6.1-15.5-6.1c-5.8,0-10.6,2-14.5,6c-3.9,4-5.8,9-5.8,14.9c0,9.7,10,18.8,30,27.2c5.3,2.2,9.3,3.9,12.2,5.1
			c19.2,8.7,32.3,18,39.3,27.9c7,9.9,10.5,23.4,10.5,40.3c0,20.8-7,38-21.1,51.6c-14.1,13.6-31.8,20.4-53.1,20.4
			c-21.5,0-38.8-7.2-52-21.5c-13.2-14.3-20.4-33.7-21.6-58.2L-3476.1,173.7z"/>
		<path id="XMLID_274_" class="st1" d="M-3206.1,247.7v-24.1c-7.6,10.1-16.3,17.7-26.1,22.6c-9.8,4.9-21,7.4-33.6,7.4
			c-28,0-49.5-8.6-64.5-25.8c-15-17.2-22.5-41.8-22.5-74V24.6h52.5v100.2c0,30.2,3.4,50.8,10.3,61.9c6.9,11.1,18.8,16.6,35.7,16.6
			c17.3,0,29.7-6.2,37.2-18.7c7.5-12.4,11.3-33.5,11.3-63.3V24.6h51.1v223.1H-3206.1z"/>
		<path id="XMLID_276_" class="st1" d="M-3068.5,1.9h-50.7v-49.5h50.7V1.9z M-3119.2,247.7V24.6h50.7v223.1H-3119.2z"/>
		<path id="XMLID_279_" class="st1" d="M-3016.6,247.7V70.8h-34.1V24.6h34.1v-72.2h51.9v72.2h34.3v46.2h-34.3v176.9H-3016.6z"/>
	</g>
</g>
<g id="XMLID_173_">
	<path id="XMLID_199_" class="st1" d="M-2227.3,374h46.4v186.2c0,38.7-10.3,69-30.9,91.1c-20.6,22-48.9,33.1-84.9,33.1
		c-26.9,0-49.4-6.3-67.5-19c-18.1-12.6-31.4-31.4-40-56.3h50.1c5.4,10,13.1,17.8,23.1,23.5c10,5.7,21.2,8.5,33.5,8.5
		c20.7,0,37.5-6.7,50.4-20.2c12.9-13.5,19.4-31.2,19.4-53.2v-2.2c-10,10.4-21.4,18.3-34.3,23.6c-12.8,5.3-26.9,8-42.2,8
		c-14.9,0-29-2.6-42.3-7.7c-13.3-5.1-25.1-12.5-35.4-22.1c-11.1-10.5-19.8-23.1-26.2-37.7c-6.4-14.6-9.5-29.5-9.5-44.6
		c0-33.8,10.7-61.7,32-83.7c21.4-22,48.5-33,81.3-33c15,0,28.8,2.6,41.5,7.9c12.6,5.3,24.4,13.4,35.4,24.3V374z M-2366,481.7
		c0,19.5,6.5,35.8,19.6,48.9c13,13.1,29.1,19.7,48.2,19.7c17.4,0,32.8-6.6,46.1-19.9c13.3-13.2,20-28.7,20-46.2
		c0-19.1-6.6-35.3-19.7-48.8c-13.1-13.5-28.7-20.2-46.9-20.2c-18.7,0-34.5,6.4-47.7,19.3C-2359.5,447.3-2366,463-2366,481.7z"/>
	<path id="XMLID_183_" class="st1" d="M-2160.4,484.5c0-15.7,2.9-30.6,8.6-44.7c5.7-14.1,14.1-26.7,25-37.6
		c11.2-11.2,23.9-19.8,37.9-25.9c14.1-6,28.7-9,43.8-9c16.1,0,30.9,2.7,44.5,8c13.6,5.3,26.1,13.4,37.4,24
		c11.6,11.2,20.6,24.2,27,38.8c6.4,14.7,9.5,29.7,9.5,45.1c0,17-2.8,32.6-8.3,46.6c-5.5,14.1-13.9,26.8-24.9,38.1
		c-11.1,11.5-23.7,20.2-37.9,26.1c-14.2,5.9-29.6,8.8-46.2,8.8c-16.8,0-32-3-45.8-8.9c-13.8-5.9-26.4-14.9-37.7-26.8
		c-10.8-11.6-19-24.4-24.5-38.4C-2157.6,514.8-2160.4,500.1-2160.4,484.5z M-2106.9,484.1c0,20.7,5.7,37.1,17,49.2
		c11.4,12.1,26.8,18.2,46.2,18.2c19.2,0,34.5-6.2,45.9-18.6c11.4-12.4,17.1-29,17.1-50c0-18.8-6-34.2-17.9-46.3
		c-12-12.1-27-18.2-45.1-18.2c-18.7,0-33.9,6.1-45.6,18.4C-2101,449-2106.9,464.8-2106.9,484.1z"/>
	<path id="XMLID_181_" class="st1" d="M-1870.4,523.1v3c0,9.9,2.5,17.9,7.5,24c5,6.2,11.5,9.2,19.5,9.2c7.6,0,13.8-2.3,18.6-6.9
		c4.8-4.6,7.2-10.5,7.2-17.6c0-6.6-1.8-12.1-5.3-16.3c-3.5-4.3-9.8-8.6-18.9-12.9c-5.1-2.3-12.7-5.5-22.7-9.5
		c-10-4.1-16.4-7.2-19.3-9.5c-8.3-6.8-14.3-14.3-18.3-22.6c-3.9-8.3-5.9-17.8-5.9-28.5c0-18.8,6.6-34.7,19.8-47.7
		c13.2-13,29.2-19.5,48-19.5c19.9,0,35.6,5.7,47.2,17.2c11.6,11.5,17.9,27.6,19,48.3h-46.6v-1.2c0-7.2-1.9-12.8-5.6-16.8
		c-3.7-4.1-8.9-6.1-15.5-6.1c-5.8,0-10.6,2-14.5,6c-3.9,4-5.8,9-5.8,14.9c0,9.7,10,18.8,30,27.2c5.3,2.2,9.3,3.9,12.2,5.1
		c19.2,8.7,32.3,18,39.3,27.9c7,9.9,10.5,23.4,10.5,40.3c0,20.8-7,38-21.1,51.6c-14.1,13.6-31.8,20.4-53.1,20.4
		c-21.5,0-38.8-7.2-52-21.5c-13.2-14.3-20.4-33.7-21.6-58.2L-1870.4,523.1z"/>
	<path id="XMLID_179_" class="st1" d="M-1600.5,597.1v-24.1c-7.6,10.1-16.3,17.7-26.1,22.6c-9.8,4.9-21,7.4-33.6,7.4
		c-28,0-49.5-8.6-64.5-25.8c-15-17.2-22.5-41.8-22.5-74V374h52.5v100.2c0,30.2,3.4,50.8,10.3,61.9c6.9,11.1,18.8,16.6,35.7,16.6
		c17.3,0,29.7-6.2,37.2-18.7c7.5-12.4,11.3-33.5,11.3-63.3V374h51.1v223.1H-1600.5z"/>
	<path id="XMLID_176_" class="st1" d="M-1462.8,351.3h-50.7v-49.5h50.7V351.3z M-1513.5,597.1V374h50.7v223.1H-1513.5z"/>
	<path id="XMLID_174_" class="st1" d="M-1410.9,597.1V420.2h-34.1V374h34.1v-72.2h51.9V374h34.3v46.2h-34.3v176.9H-1410.9z"/>
</g>
<g id="XMLID_134_">
	<path id="XMLID_143_" class="st0" d="M140.5,21.1V6.7L125.8,12l-14.6-5.3v14.4l14.6-5.3L140.5,21.1z M136.9,11.7V16l-5.9-2.1
		L136.9,11.7z M114.7,16v-4.3l5.9,2.1L114.7,16z"/>
	<path id="XMLID_140_" class="st0" d="M116.1,82.4c-2.3,0-4.2,1.9-4.2,4.2c0,2.3,1.9,4.2,4.2,4.2s4.2-1.9,4.2-4.2
		C120.2,84.3,118.4,82.4,116.1,82.4z M116.1,87.3c-0.4,0-0.7-0.3-0.7-0.7c0-0.4,0.3-0.7,0.7-0.7c0.4,0,0.7,0.3,0.7,0.7
		C116.7,87,116.4,87.3,116.1,87.3z"/>
	<polygon id="XMLID_139_" class="st0" points="147.6,62.3 143.2,65.8 152,65.8 	"/>
	<path id="XMLID_135_" class="st0" d="M171.6,56.8c-6.7-7.4-8.8-16.8-9.3-23.4c-0.6-7.3,0.4-12.9,0.4-12.9l0.3-1.8l-17.4-2.7
		l-19.8,31.8L106,16.1l-15.6,2.4l-1.8,0.3l0.3,1.8c0,0.1,1,5.6,0.4,12.9c-0.6,6.6-2.6,16-9.3,23.4l-0.5,0.6l4.2,44.2l8.1,9.1
		c0,0,17.8,18.2,26.8,27.2c1.6,1.6,3,3.5,5.1,4.2c0.6,0.2,2.1,0,2.1,0s3.7-2.5,5.2-4.1c9-9,37-36.4,37-36.4l4.2-44.2L171.6,56.8z
		 M133,65.8h4.4l10.2-7.9l10.1,7.9h4.2v3.5h-5.3h-18.5H133V65.8z M124.1,136.8l-7.1-7.2L86.4,98.9l-3.2-40.3c5.5-6.4,8.9-15,9.7-25
		c0.4-5.3,0.1-9.6-0.2-11.9l11.5-1.8l19.8,31.8v29.7V136.8z"/>
</g>
<g id="XMLID_105_">
	<path id="XMLID_118_" class="st1" d="M53.1,170.9h9.5v38c0,7.9-2.1,14.1-6.3,18.6c-4.2,4.5-10,6.8-17.3,6.8
		c-5.5,0-10.1-1.3-13.8-3.9c-3.7-2.6-6.4-6.4-8.2-11.5h10.2c1.1,2,2.7,3.6,4.7,4.8c2,1.2,4.3,1.7,6.8,1.7c4.2,0,7.7-1.4,10.3-4.1
		c2.6-2.7,4-6.4,4-10.9V210c-2,2.1-4.4,3.7-7,4.8c-2.6,1.1-5.5,1.6-8.6,1.6c-3,0-5.9-0.5-8.6-1.6c-2.7-1-5.1-2.6-7.2-4.5
		c-2.3-2.2-4-4.7-5.3-7.7c-1.3-3-1.9-6-1.9-9.1c0-6.9,2.2-12.6,6.5-17.1c4.4-4.5,9.9-6.7,16.6-6.7c3.1,0,5.9,0.5,8.5,1.6
		c2.6,1.1,5,2.7,7.2,5V170.9z M24.8,192.9c0,4,1.3,7.3,4,10c2.7,2.7,5.9,4,9.8,4c3.6,0,6.7-1.4,9.4-4.1c2.7-2.7,4.1-5.9,4.1-9.4
		c0-3.9-1.3-7.2-4-10c-2.7-2.7-5.9-4.1-9.6-4.1c-3.8,0-7.1,1.3-9.7,3.9C26.1,185.9,24.8,189.1,24.8,192.9z"/>
	<path id="XMLID_115_" class="st1" d="M66.8,193.5c0-3.2,0.6-6.2,1.8-9.1c1.2-2.9,2.9-5.4,5.1-7.7c2.3-2.3,4.9-4.1,7.7-5.3
		c2.9-1.2,5.9-1.8,8.9-1.8c3.3,0,6.3,0.5,9.1,1.6c2.8,1.1,5.3,2.7,7.6,4.9c2.4,2.3,4.2,4.9,5.5,7.9c1.3,3,1.9,6.1,1.9,9.2
		c0,3.5-0.6,6.7-1.7,9.5c-1.1,2.9-2.8,5.5-5.1,7.8c-2.3,2.3-4.8,4.1-7.7,5.3c-2.9,1.2-6,1.8-9.4,1.8c-3.4,0-6.5-0.6-9.4-1.8
		c-2.8-1.2-5.4-3-7.7-5.5c-2.2-2.4-3.9-5-5-7.8C67.3,199.7,66.8,196.7,66.8,193.5z M77.7,193.4c0,4.2,1.2,7.6,3.5,10
		c2.3,2.5,5.5,3.7,9.4,3.7c3.9,0,7-1.3,9.4-3.8c2.3-2.5,3.5-5.9,3.5-10.2c0-3.8-1.2-7-3.7-9.5c-2.4-2.5-5.5-3.7-9.2-3.7
		c-3.8,0-6.9,1.2-9.3,3.7C78.9,186.2,77.7,189.5,77.7,193.4z"/>
	<path id="XMLID_113_" class="st1" d="M126,201.4v0.6c0,2,0.5,3.7,1.5,4.9c1,1.3,2.3,1.9,4,1.9c1.5,0,2.8-0.5,3.8-1.4
		c1-0.9,1.5-2.1,1.5-3.6c0-1.4-0.4-2.5-1.1-3.3c-0.7-0.9-2-1.7-3.9-2.6c-1-0.5-2.6-1.1-4.6-1.9c-2-0.8-3.4-1.5-3.9-1.9
		c-1.7-1.4-2.9-2.9-3.7-4.6c-0.8-1.7-1.2-3.6-1.2-5.8c0-3.8,1.3-7.1,4-9.7c2.7-2.7,6-4,9.8-4c4.1,0,7.3,1.2,9.6,3.5
		c2.4,2.3,3.7,5.6,3.9,9.9h-9.5v-0.2c0-1.5-0.4-2.6-1.1-3.4c-0.8-0.8-1.8-1.2-3.2-1.2c-1.2,0-2.2,0.4-3,1.2c-0.8,0.8-1.2,1.8-1.2,3
		c0,2,2,3.8,6.1,5.6c1.1,0.4,1.9,0.8,2.5,1c3.9,1.8,6.6,3.7,8,5.7c1.4,2,2.2,4.8,2.2,8.2c0,4.3-1.4,7.8-4.3,10.5
		c-2.9,2.8-6.5,4.2-10.9,4.2c-4.4,0-7.9-1.5-10.6-4.4c-2.7-2.9-4.2-6.9-4.4-11.9L126,201.4z"/>
	<path id="XMLID_111_" class="st1" d="M181.1,216.5v-4.9c-1.5,2.1-3.3,3.6-5.3,4.6c-2,1-4.3,1.5-6.9,1.5c-5.7,0-10.1-1.8-13.2-5.3
		c-3.1-3.5-4.6-8.5-4.6-15.1v-26.4h10.7v20.5c0,6.2,0.7,10.4,2.1,12.6c1.4,2.3,3.8,3.4,7.3,3.4c3.5,0,6.1-1.3,7.6-3.8
		c1.5-2.5,2.3-6.8,2.3-12.9v-19.8h10.4v45.6H181.1z"/>
	<path id="XMLID_108_" class="st1" d="M209.2,166.3h-10.4v-10.1h10.4V166.3z M198.9,216.5v-45.6h10.4v45.6H198.9z"/>
	<path id="XMLID_106_" class="st1" d="M219.8,216.5v-36.1h-7v-9.4h7v-14.7h10.6v14.7h7v9.4h-7v36.1H219.8z"/>
</g>
</svg>
