<?xml version="1.0" encoding="iso-8859-1"?>
<!-- Generator: Adobe Illustrator 19.0.0, SVG Export Plug-In . SVG Version: 6.00 Build 0)  -->
<svg version="1.1" id="Capa_1" xmlns="http://www.w3.org/2000/svg" xmlns:xlink="http://www.w3.org/1999/xlink" x="0px" y="0px"
	 viewBox="0 0 512 512" style="enable-background:new 0 0 512 512;" xml:space="preserve">
<g>
	<g>
		<path d="M480,0H32c-5.888,0-10.667,4.779-10.667,10.667v490.667C21.333,507.221,26.112,512,32,512h448
			c5.888,0,10.667-4.779,10.667-10.667V10.667C490.667,4.779,485.888,0,480,0z M469.333,490.667H42.667V21.333h426.667V490.667z"/>
	</g>
</g>
<g>
	<g>
		<path d="M437.333,42.667H74.667C68.779,42.667,64,47.445,64,53.333v320C64,379.221,68.779,384,74.667,384h362.667
			c5.888,0,10.667-4.779,10.667-10.667v-320C448,47.445,443.221,42.667,437.333,42.667z M426.667,362.667H85.333V64h341.333V362.667
			z"/>
	</g>
</g>
<g>
	<g>
		<path d="M362.155,252.779c-21.952-69.205-76.395-123.648-145.6-145.6c-2.773-0.875-5.76-0.576-8.32,0.789
			c-2.539,1.387-4.416,3.733-5.184,6.528l-53.333,192c-1.045,3.712,0,7.68,2.731,10.389c2.027,2.005,4.757,3.115,7.552,3.115
			c0.96,0,1.92-0.128,2.837-0.384l192-53.333c2.795-0.768,5.163-2.645,6.528-5.184S363.029,255.552,362.155,252.779z
			 M175.339,293.995l45.227-162.859c54.165,20.523,97.109,63.467,117.632,117.632L175.339,293.995z"/>
	</g>
</g>
<g>
	<g>
		<path d="M256,181.333c-17.643,0-32,14.357-32,32c0,17.643,14.357,32,32,32s32-14.357,32-32
			C288,195.691,273.643,181.333,256,181.333z M256,224c-5.867,0-10.667-4.8-10.667-10.667c0-5.867,4.8-10.667,10.667-10.667
			c5.867,0,10.667,4.8,10.667,10.667C266.667,219.2,261.867,224,256,224z"/>
	</g>
</g>
<g>
	<g>
		<path d="M202.667,234.667h-21.333c-5.888,0-10.667,4.779-10.667,10.667S175.445,256,181.333,256h21.333
			c5.888,0,10.667-4.779,10.667-10.667S208.555,234.667,202.667,234.667z"/>
	</g>
</g>
<g>
</g>
<g>
</g>
<g>
</g>
<g>
</g>
<g>
</g>
<g>
</g>
<g>
</g>
<g>
</g>
<g>
</g>
<g>
</g>
<g>
</g>
<g>
</g>
<g>
</g>
<g>
</g>
<g>
</g>
</svg>
